<mxfile host="app.diagrams.net" modified="2021-10-25T11:34:47.163Z" agent="5.0 (Windows NT 10.0; Win64; x64) AppleWebKit/537.36 (KHTML, like Gecko) Chrome/95.0.4638.54 Safari/537.36" etag="648aAYBj-yepJ42CJoxB" version="15.5.9" type="github">
  <diagram id="wEUWDhrLtQ7qWJUwgqZ3" name="Page-1">
    <mxGraphModel dx="1422" dy="794" grid="0" gridSize="10" guides="1" tooltips="1" connect="1" arrows="1" fold="1" page="1" pageScale="1" pageWidth="1600" pageHeight="1600" math="0" shadow="0">
      <root>
        <mxCell id="0" />
        <mxCell id="1" parent="0" />
        <mxCell id="2wDuuPoUSpi1u29aejhP-13" style="edgeStyle=orthogonalEdgeStyle;rounded=0;orthogonalLoop=1;jettySize=auto;html=1;entryX=0.5;entryY=0;entryDx=0;entryDy=0;" edge="1" parent="1" source="2wDuuPoUSpi1u29aejhP-2" target="2wDuuPoUSpi1u29aejhP-3">
          <mxGeometry relative="1" as="geometry" />
        </mxCell>
        <mxCell id="2wDuuPoUSpi1u29aejhP-26" style="edgeStyle=orthogonalEdgeStyle;rounded=0;jumpStyle=arc;jumpSize=6;orthogonalLoop=1;jettySize=auto;html=1;entryX=0.5;entryY=0;entryDx=0;entryDy=0;endArrow=classic;endFill=1;startArrow=classic;startFill=1;exitX=0;exitY=0;exitDx=0;exitDy=0;" edge="1" parent="1" source="2wDuuPoUSpi1u29aejhP-15" target="2wDuuPoUSpi1u29aejhP-25">
          <mxGeometry relative="1" as="geometry" />
        </mxCell>
        <mxCell id="2wDuuPoUSpi1u29aejhP-2" value="메인 홈페이지" style="rounded=1;whiteSpace=wrap;html=1;" vertex="1" parent="1">
          <mxGeometry x="760" y="562" width="120" height="60" as="geometry" />
        </mxCell>
        <mxCell id="2wDuuPoUSpi1u29aejhP-12" style="edgeStyle=orthogonalEdgeStyle;rounded=0;orthogonalLoop=1;jettySize=auto;html=1;" edge="1" parent="1" source="2wDuuPoUSpi1u29aejhP-3" target="2wDuuPoUSpi1u29aejhP-5">
          <mxGeometry relative="1" as="geometry" />
        </mxCell>
        <mxCell id="2wDuuPoUSpi1u29aejhP-3" value="로그인 페이지" style="rounded=1;whiteSpace=wrap;html=1;" vertex="1" parent="1">
          <mxGeometry x="760" y="662" width="120" height="60" as="geometry" />
        </mxCell>
        <mxCell id="2wDuuPoUSpi1u29aejhP-11" style="edgeStyle=orthogonalEdgeStyle;rounded=0;orthogonalLoop=1;jettySize=auto;html=1;" edge="1" parent="1" source="2wDuuPoUSpi1u29aejhP-5" target="2wDuuPoUSpi1u29aejhP-6">
          <mxGeometry relative="1" as="geometry" />
        </mxCell>
        <mxCell id="2wDuuPoUSpi1u29aejhP-5" value="DB" style="shape=cylinder3;whiteSpace=wrap;html=1;boundedLbl=1;backgroundOutline=1;size=15;" vertex="1" parent="1">
          <mxGeometry x="790" y="752" width="60" height="80" as="geometry" />
        </mxCell>
        <mxCell id="2wDuuPoUSpi1u29aejhP-9" value="YES" style="edgeStyle=orthogonalEdgeStyle;rounded=0;orthogonalLoop=1;jettySize=auto;html=1;" edge="1" parent="1" source="2wDuuPoUSpi1u29aejhP-6" target="2wDuuPoUSpi1u29aejhP-7">
          <mxGeometry relative="1" as="geometry" />
        </mxCell>
        <mxCell id="2wDuuPoUSpi1u29aejhP-21" value="NO" style="rounded=0;orthogonalLoop=1;jettySize=auto;html=1;edgeStyle=orthogonalEdgeStyle;jumpStyle=arc;jumpSize=6;" edge="1" parent="1" source="2wDuuPoUSpi1u29aejhP-6" target="2wDuuPoUSpi1u29aejhP-20">
          <mxGeometry relative="1" as="geometry" />
        </mxCell>
        <mxCell id="2wDuuPoUSpi1u29aejhP-6" value="DB에 있는가?" style="rhombus;whiteSpace=wrap;html=1;" vertex="1" parent="1">
          <mxGeometry x="760" y="862" width="120" height="80" as="geometry" />
        </mxCell>
        <mxCell id="2wDuuPoUSpi1u29aejhP-10" value="NO" style="edgeStyle=orthogonalEdgeStyle;rounded=0;orthogonalLoop=1;jettySize=auto;html=1;entryX=0;entryY=0.5;entryDx=0;entryDy=0;" edge="1" parent="1" source="2wDuuPoUSpi1u29aejhP-7" target="2wDuuPoUSpi1u29aejhP-8">
          <mxGeometry relative="1" as="geometry" />
        </mxCell>
        <mxCell id="2wDuuPoUSpi1u29aejhP-19" value="YES" style="edgeStyle=orthogonalEdgeStyle;rounded=0;orthogonalLoop=1;jettySize=auto;html=1;entryX=0;entryY=0.5;entryDx=0;entryDy=0;exitX=0;exitY=0.5;exitDx=0;exitDy=0;" edge="1" parent="1" source="2wDuuPoUSpi1u29aejhP-7">
          <mxGeometry relative="1" as="geometry">
            <mxPoint x="750" y="582" as="targetPoint" />
            <Array as="points">
              <mxPoint x="680" y="1022" />
              <mxPoint x="680" y="582" />
            </Array>
          </mxGeometry>
        </mxCell>
        <mxCell id="2wDuuPoUSpi1u29aejhP-7" value="관리자인가?" style="rhombus;whiteSpace=wrap;html=1;" vertex="1" parent="1">
          <mxGeometry x="760" y="982" width="120" height="80" as="geometry" />
        </mxCell>
        <mxCell id="2wDuuPoUSpi1u29aejhP-14" value="YES" style="edgeStyle=orthogonalEdgeStyle;rounded=0;orthogonalLoop=1;jettySize=auto;html=1;entryX=1;entryY=0.5;entryDx=0;entryDy=0;elbow=vertical;exitX=0.5;exitY=0;exitDx=0;exitDy=0;" edge="1" parent="1" source="2wDuuPoUSpi1u29aejhP-8" target="2wDuuPoUSpi1u29aejhP-2">
          <mxGeometry relative="1" as="geometry" />
        </mxCell>
        <mxCell id="2wDuuPoUSpi1u29aejhP-22" value="NO" style="edgeStyle=orthogonalEdgeStyle;rounded=0;jumpStyle=arc;jumpSize=6;orthogonalLoop=1;jettySize=auto;html=1;entryX=0.5;entryY=1;entryDx=0;entryDy=0;" edge="1" parent="1" source="2wDuuPoUSpi1u29aejhP-8" target="2wDuuPoUSpi1u29aejhP-20">
          <mxGeometry relative="1" as="geometry" />
        </mxCell>
        <mxCell id="2wDuuPoUSpi1u29aejhP-8" value="회원인가?" style="rhombus;whiteSpace=wrap;html=1;" vertex="1" parent="1">
          <mxGeometry x="940" y="982" width="120" height="80" as="geometry" />
        </mxCell>
        <mxCell id="2wDuuPoUSpi1u29aejhP-58" style="edgeStyle=orthogonalEdgeStyle;rounded=0;jumpStyle=arc;jumpSize=6;orthogonalLoop=1;jettySize=auto;html=1;entryX=0;entryY=0.5;entryDx=0;entryDy=0;startArrow=classic;startFill=1;endArrow=classic;endFill=1;" edge="1" parent="1" source="2wDuuPoUSpi1u29aejhP-15" target="2wDuuPoUSpi1u29aejhP-56">
          <mxGeometry relative="1" as="geometry" />
        </mxCell>
        <mxCell id="2wDuuPoUSpi1u29aejhP-15" value="관리자 홈페이지" style="swimlane;fontStyle=0;childLayout=stackLayout;horizontal=1;startSize=30;horizontalStack=0;resizeParent=1;resizeParentMax=0;resizeLast=0;collapsible=1;marginBottom=0;" vertex="1" parent="1">
          <mxGeometry x="750" y="490" width="140" height="146" as="geometry" />
        </mxCell>
        <mxCell id="2wDuuPoUSpi1u29aejhP-20" value="Alert&lt;br&gt;없는 회원입니다" style="rounded=1;whiteSpace=wrap;html=1;" vertex="1" parent="1">
          <mxGeometry x="1090" y="872" width="120" height="60" as="geometry" />
        </mxCell>
        <mxCell id="2wDuuPoUSpi1u29aejhP-24" style="edgeStyle=orthogonalEdgeStyle;rounded=0;jumpStyle=arc;jumpSize=6;orthogonalLoop=1;jettySize=auto;html=1;entryX=0.5;entryY=0;entryDx=0;entryDy=0;" edge="1" parent="1" source="2wDuuPoUSpi1u29aejhP-23" target="2wDuuPoUSpi1u29aejhP-15">
          <mxGeometry relative="1" as="geometry" />
        </mxCell>
        <mxCell id="2wDuuPoUSpi1u29aejhP-23" value="홈페이지 접속" style="rounded=1;whiteSpace=wrap;html=1;" vertex="1" parent="1">
          <mxGeometry x="760" y="390" width="120" height="60" as="geometry" />
        </mxCell>
        <mxCell id="2wDuuPoUSpi1u29aejhP-28" value="" style="edgeStyle=orthogonalEdgeStyle;rounded=0;jumpStyle=arc;jumpSize=6;orthogonalLoop=1;jettySize=auto;html=1;endArrow=classic;endFill=1;" edge="1" parent="1" source="2wDuuPoUSpi1u29aejhP-25" target="2wDuuPoUSpi1u29aejhP-27">
          <mxGeometry relative="1" as="geometry" />
        </mxCell>
        <mxCell id="2wDuuPoUSpi1u29aejhP-25" value="지역 홈페이지" style="rounded=1;whiteSpace=wrap;html=1;" vertex="1" parent="1">
          <mxGeometry x="509" y="530" width="120" height="60" as="geometry" />
        </mxCell>
        <mxCell id="2wDuuPoUSpi1u29aejhP-41" style="edgeStyle=orthogonalEdgeStyle;rounded=0;jumpStyle=arc;jumpSize=6;orthogonalLoop=1;jettySize=auto;html=1;entryX=1;entryY=0.5;entryDx=0;entryDy=0;endArrow=classic;endFill=1;" edge="1" parent="1" source="2wDuuPoUSpi1u29aejhP-27" target="2wDuuPoUSpi1u29aejhP-39">
          <mxGeometry relative="1" as="geometry" />
        </mxCell>
        <mxCell id="2wDuuPoUSpi1u29aejhP-42" style="edgeStyle=orthogonalEdgeStyle;rounded=0;jumpStyle=arc;jumpSize=6;orthogonalLoop=1;jettySize=auto;html=1;entryX=1;entryY=0.5;entryDx=0;entryDy=0;endArrow=classic;endFill=1;" edge="1" parent="1" source="2wDuuPoUSpi1u29aejhP-27" target="2wDuuPoUSpi1u29aejhP-38">
          <mxGeometry relative="1" as="geometry" />
        </mxCell>
        <mxCell id="2wDuuPoUSpi1u29aejhP-43" style="edgeStyle=orthogonalEdgeStyle;rounded=0;jumpStyle=arc;jumpSize=6;orthogonalLoop=1;jettySize=auto;html=1;entryX=1;entryY=0.5;entryDx=0;entryDy=0;endArrow=classic;endFill=1;" edge="1" parent="1" source="2wDuuPoUSpi1u29aejhP-27" target="2wDuuPoUSpi1u29aejhP-34">
          <mxGeometry relative="1" as="geometry" />
        </mxCell>
        <mxCell id="2wDuuPoUSpi1u29aejhP-44" style="edgeStyle=orthogonalEdgeStyle;rounded=0;jumpStyle=arc;jumpSize=6;orthogonalLoop=1;jettySize=auto;html=1;entryX=1;entryY=0.5;entryDx=0;entryDy=0;endArrow=classic;endFill=1;" edge="1" parent="1" source="2wDuuPoUSpi1u29aejhP-27" target="2wDuuPoUSpi1u29aejhP-40">
          <mxGeometry relative="1" as="geometry" />
        </mxCell>
        <mxCell id="2wDuuPoUSpi1u29aejhP-27" value="서브 메뉴" style="whiteSpace=wrap;html=1;rounded=1;" vertex="1" parent="1">
          <mxGeometry x="509" y="630" width="120" height="60" as="geometry" />
        </mxCell>
        <mxCell id="2wDuuPoUSpi1u29aejhP-47" style="edgeStyle=orthogonalEdgeStyle;rounded=0;jumpStyle=arc;jumpSize=6;orthogonalLoop=1;jettySize=auto;html=1;entryX=0;entryY=0.5;entryDx=0;entryDy=0;startArrow=none;startFill=0;endArrow=classic;endFill=1;exitX=0;exitY=0.5;exitDx=0;exitDy=0;" edge="1" parent="1" source="2wDuuPoUSpi1u29aejhP-34" target="2wDuuPoUSpi1u29aejhP-46">
          <mxGeometry relative="1" as="geometry" />
        </mxCell>
        <mxCell id="2wDuuPoUSpi1u29aejhP-34" value="미식" style="whiteSpace=wrap;html=1;rounded=1;" vertex="1" parent="1">
          <mxGeometry x="319" y="500" width="120" height="60" as="geometry" />
        </mxCell>
        <mxCell id="2wDuuPoUSpi1u29aejhP-49" style="edgeStyle=orthogonalEdgeStyle;rounded=0;jumpStyle=arc;jumpSize=6;orthogonalLoop=1;jettySize=auto;html=1;entryX=0;entryY=0.5;entryDx=0;entryDy=0;startArrow=none;startFill=0;endArrow=classic;endFill=1;exitX=0;exitY=0.5;exitDx=0;exitDy=0;" edge="1" parent="1" source="2wDuuPoUSpi1u29aejhP-38" target="2wDuuPoUSpi1u29aejhP-46">
          <mxGeometry relative="1" as="geometry" />
        </mxCell>
        <mxCell id="2wDuuPoUSpi1u29aejhP-38" value="어드벤쳐" style="rounded=1;whiteSpace=wrap;html=1;" vertex="1" parent="1">
          <mxGeometry x="319" y="590" width="120" height="60" as="geometry" />
        </mxCell>
        <mxCell id="2wDuuPoUSpi1u29aejhP-50" style="edgeStyle=orthogonalEdgeStyle;rounded=0;jumpStyle=arc;jumpSize=6;orthogonalLoop=1;jettySize=auto;html=1;entryX=0;entryY=0.5;entryDx=0;entryDy=0;startArrow=none;startFill=0;endArrow=classic;endFill=1;exitX=0;exitY=0.5;exitDx=0;exitDy=0;" edge="1" parent="1" source="2wDuuPoUSpi1u29aejhP-39" target="2wDuuPoUSpi1u29aejhP-46">
          <mxGeometry relative="1" as="geometry" />
        </mxCell>
        <mxCell id="2wDuuPoUSpi1u29aejhP-39" value="자연" style="rounded=1;whiteSpace=wrap;html=1;" vertex="1" parent="1">
          <mxGeometry x="319" y="680" width="120" height="60" as="geometry" />
        </mxCell>
        <mxCell id="2wDuuPoUSpi1u29aejhP-51" style="edgeStyle=orthogonalEdgeStyle;rounded=0;jumpStyle=arc;jumpSize=6;orthogonalLoop=1;jettySize=auto;html=1;entryX=0;entryY=0.5;entryDx=0;entryDy=0;startArrow=none;startFill=0;endArrow=classic;endFill=1;exitX=0;exitY=0.5;exitDx=0;exitDy=0;" edge="1" parent="1" source="2wDuuPoUSpi1u29aejhP-40" target="2wDuuPoUSpi1u29aejhP-46">
          <mxGeometry relative="1" as="geometry" />
        </mxCell>
        <mxCell id="2wDuuPoUSpi1u29aejhP-40" value="힐링" style="rounded=1;whiteSpace=wrap;html=1;" vertex="1" parent="1">
          <mxGeometry x="319" y="770" width="120" height="60" as="geometry" />
        </mxCell>
        <mxCell id="2wDuuPoUSpi1u29aejhP-52" value="NO" style="edgeStyle=orthogonalEdgeStyle;rounded=0;jumpStyle=arc;jumpSize=6;orthogonalLoop=1;jettySize=auto;html=1;entryX=0.5;entryY=1;entryDx=0;entryDy=0;startArrow=none;startFill=0;endArrow=classic;endFill=1;" edge="1" parent="1" source="2wDuuPoUSpi1u29aejhP-46" target="2wDuuPoUSpi1u29aejhP-27">
          <mxGeometry relative="1" as="geometry" />
        </mxCell>
        <mxCell id="2wDuuPoUSpi1u29aejhP-54" value="YES" style="edgeStyle=orthogonalEdgeStyle;rounded=0;jumpStyle=arc;jumpSize=6;orthogonalLoop=1;jettySize=auto;html=1;entryX=0.5;entryY=0;entryDx=0;entryDy=0;startArrow=none;startFill=0;endArrow=classic;endFill=1;" edge="1" parent="1" source="2wDuuPoUSpi1u29aejhP-46" target="2wDuuPoUSpi1u29aejhP-53">
          <mxGeometry relative="1" as="geometry" />
        </mxCell>
        <mxCell id="2wDuuPoUSpi1u29aejhP-46" value="홍보사진&lt;br&gt;클릭" style="rhombus;whiteSpace=wrap;html=1;" vertex="1" parent="1">
          <mxGeometry x="509" y="840" width="120" height="80" as="geometry" />
        </mxCell>
        <mxCell id="2wDuuPoUSpi1u29aejhP-53" value="지역 지도 표시" style="rounded=1;whiteSpace=wrap;html=1;" vertex="1" parent="1">
          <mxGeometry x="509" y="960" width="120" height="60" as="geometry" />
        </mxCell>
        <mxCell id="2wDuuPoUSpi1u29aejhP-55" value="홈페이지 수정권한" style="text;html=1;align=center;verticalAlign=middle;resizable=0;points=[];autosize=1;strokeColor=none;fillColor=none;" vertex="1" parent="1">
          <mxGeometry x="765" y="532" width="109" height="18" as="geometry" />
        </mxCell>
        <mxCell id="2wDuuPoUSpi1u29aejhP-56" value="등록 게시판" style="rounded=1;whiteSpace=wrap;html=1;" vertex="1" parent="1">
          <mxGeometry x="1034" y="533" width="120" height="60" as="geometry" />
        </mxCell>
      </root>
    </mxGraphModel>
  </diagram>
</mxfile>
